<?xml version="1.0" encoding="UTF-8"?>
<svg version="1.1" xmlns="http://www.w3.org/2000/svg" width="3011" height="2944">
<path d="M0 0 C2.27983589 0.95580358 4.38831319 2.04553618 6.53710938 3.27050781 C7.43776123 3.78137939 8.33841309 4.29225098 9.26635742 4.81860352 C10.23742432 5.37636475 11.20849121 5.93412598 12.20898438 6.50878906 C13.22968018 7.09039795 14.25037598 7.67200684 15.30200195 8.27124023 C23.43970175 12.9198429 31.53540984 17.64002789 39.62207031 22.37670898 C47.37119172 26.91115386 55.15806676 31.37687942 62.95898438 35.82128906 C72.68032536 41.36097806 82.3679353 46.95503969 92.02587891 52.60473633 C102.54983062 58.75895648 113.11278575 64.84498902 123.67675781 70.93017578 C129.1055838 74.05809055 134.53217719 77.18987354 139.95898438 80.32128906 C142.1256402 81.57130785 144.29230687 82.82130785 146.45898438 84.07128906 C168.12565104 96.57128906 189.79231771 109.07128906 211.45898438 121.57128906 C212.53204834 122.19036133 213.6051123 122.80943359 214.71069336 123.44726562 C216.87167426 124.69399162 219.03264435 125.94073633 221.19360352 127.1875 C226.69717289 130.3627479 232.2009447 133.53764401 237.70507812 136.71191406 C250.46314381 144.07005857 263.2162408 151.43663887 275.95898438 158.82128906 C274.65102582 162.74516472 273.22158757 163.09478266 269.65039062 165.08691406 C268.5242334 165.72185791 267.39807617 166.35680176 266.23779297 167.01098633 C264.99904109 167.69778575 263.76027108 168.38455246 262.52148438 169.07128906 C261.24567166 169.78761494 259.97045094 170.50499615 258.69580078 171.22338867 C256.06835107 172.70372295 253.43887311 174.18035642 250.80810547 175.65478516 C245.1215422 178.84823424 239.47805703 182.11600838 233.83398438 185.38378906 C231.6856314 186.6248208 229.53719378 187.86570604 227.38867188 189.10644531 C226.32874023 189.71891113 225.26880859 190.33137695 224.17675781 190.96240234 C218.77227792 194.08453511 213.36551025 197.2027011 207.95898438 200.32128906 C205.79230687 201.57127028 203.6256402 202.82127027 201.45898438 204.07128906 C136.45898437 241.57128906 136.45898437 241.57128906 133.20849609 243.4465332 C131.04341367 244.69564424 128.87837455 245.94483036 126.71337891 247.1940918 C121.27282732 250.33331216 115.83151222 253.47119469 110.38867188 256.60644531 C99.93692238 262.62876235 89.4959889 268.66798243 79.08398438 274.75878906 C69.81334507 280.18087605 60.49961739 285.52452918 51.16851807 290.84152222 C43.07190594 295.45612935 35.00109636 300.11213792 26.95898438 304.82128906 C18.3240088 309.87759829 9.65292118 314.86736028 0.95898438 319.82128906 C-8.76226068 325.36114839 -18.44996431 330.95503838 -28.10791016 336.60473633 C-38.63186187 342.75895648 -49.194817 348.84498902 -59.75878906 354.93017578 C-65.18761505 358.05809055 -70.61420844 361.18987354 -76.04101562 364.32128906 C-78.20767145 365.57130785 -80.37433812 366.82130785 -82.54101562 368.07128906 C-83.61351562 368.69003906 -84.68601562 369.30878906 -85.79101562 369.94628906 C-199.54101563 435.57128906 -199.54101563 435.57128906 -202.79516602 437.44824219 C-204.94850836 438.69084786 -207.10134578 439.93432895 -209.25366211 441.17871094 C-214.27700258 444.08161003 -219.30455745 446.97612375 -224.35122681 449.83825684 C-226.12604033 450.84537131 -227.89918863 451.85535775 -229.671875 452.86621094 C-231.88738142 454.12843172 -234.10592898 455.38533631 -236.328125 456.63574219 C-254.08621798 466.77836708 -265.83456654 478.66592421 -272.09570312 498.34082031 C-274.04712296 505.52559335 -274.18498343 512.27893466 -274.1752367 519.68130302 C-274.17758893 520.89061973 -274.17994116 522.09993644 -274.18236467 523.34589911 C-274.18788351 526.70968235 -274.18892697 530.07341341 -274.18808726 533.43719754 C-274.18825693 537.09424853 -274.19416495 540.75129099 -274.19932812 544.40833771 C-274.20865216 551.66495333 -274.21257584 558.92156285 -274.21484709 566.17818372 C-274.21780969 574.86909069 -274.22650746 583.55998956 -274.23526137 592.25089229 C-274.25610484 613.25829572 -274.26657556 634.26570055 -274.27539098 655.27311191 C-274.27959778 665.21179962 -274.28481974 675.15048673 -274.29007551 685.08917393 C-274.30796595 719.1122325 -274.32296169 753.13529124 -274.3303957 787.15835381 C-274.33087046 789.29431979 -274.33134634 791.43028578 -274.33182336 793.56625176 C-274.33205974 794.62549612 -274.33229611 795.68474048 -274.33253965 796.77608315 C-274.33374085 802.14271429 -274.3349563 807.50934543 -274.33618164 812.87597656 C-274.33642179 813.94099963 -274.33666194 815.00602269 -274.33690937 816.10331918 C-274.34480145 850.63019461 -274.3682313 885.15703567 -274.40073758 919.6838961 C-274.43504424 956.18970938 -274.45474763 992.69550255 -274.45803994 1029.20133221 C-274.45845748 1033.20980462 -274.45893704 1037.21827702 -274.45946312 1041.22674942 C-274.45958631 1042.21374424 -274.4597095 1043.20073907 -274.45983643 1044.21764282 C-274.46216744 1060.09386144 -274.47782193 1075.97004011 -274.49830497 1091.84624449 C-274.51857239 1107.80875778 -274.52403592 1123.77122316 -274.51453433 1139.73374693 C-274.50932291 1149.21305247 -274.51517989 1158.69219835 -274.537069 1168.17148087 C-274.55059817 1174.51032461 -274.54948144 1180.84905871 -274.53666705 1187.18790359 C-274.52978446 1190.79522347 -274.52905199 1194.4022386 -274.54622713 1198.00953101 C-274.65089742 1221.4600069 -273.27680698 1242.99218303 -256.04101562 1260.82128906 C-247.17717574 1269.02297452 -236.18036923 1274.37527486 -225.67773438 1280.14941406 C-219.42780296 1283.58874158 -213.25534885 1287.14750883 -207.10351562 1290.75878906 C-205.1127229 1291.92561389 -203.12183672 1293.09227929 -201.13085938 1294.25878906 C-200.13425293 1294.84273437 -199.13764648 1295.42667969 -198.11083984 1296.02832031 C-192.80774313 1299.12565945 -187.48706627 1302.19242764 -182.16601562 1305.25878906 C-180.54578491 1306.19259399 -180.54578491 1306.19259399 -178.89282227 1307.14526367 C-176.70305229 1308.40705733 -174.51319208 1309.6686944 -172.32324219 1310.93017578 C-166.8944162 1314.05809055 -161.46782281 1317.18987354 -156.04101562 1320.32128906 C-153.8743598 1321.57130785 -151.70769313 1322.82130785 -149.54101562 1324.07128906 C-136.54101562 1331.57128906 -123.54101562 1339.07128906 -110.54101562 1346.57128906 C-109.46835449 1347.19011963 -108.39569336 1347.8089502 -107.29052734 1348.4465332 C-105.12544492 1349.69564424 -102.9604058 1350.94483036 -100.79541016 1352.1940918 C-95.35485857 1355.33331216 -89.91354347 1358.47119469 -84.47070312 1361.60644531 C-74.01895363 1367.62876235 -63.57802015 1373.66798243 -53.16601562 1379.75878906 C-44.48839321 1384.8340403 -35.77495995 1389.84387673 -27.04101562 1394.82128906 C-17.31985946 1400.36130636 -7.63206905 1405.95503715 2.02587891 1411.60473633 C12.54983062 1417.75895648 23.11278575 1423.84498902 33.67675781 1429.93017578 C39.1055838 1433.05809055 44.53217719 1436.18987354 49.95898438 1439.32128906 C52.1256402 1440.57130785 54.29230687 1441.82130785 56.45898438 1443.07128906 C138.79231771 1490.57128906 221.12565104 1538.07128906 303.45898438 1585.57128906 C304.53204834 1586.19036133 305.6051123 1586.80943359 306.71069336 1587.44726562 C308.87167426 1588.69399162 311.03264435 1589.94073633 313.19360352 1591.1875 C318.69717289 1594.3627479 324.2009447 1597.53764401 329.70507812 1600.71191406 C330.8147998 1601.35217529 331.92452148 1601.99243652 333.06787109 1602.65209961 C335.26791331 1603.92058515 337.46874654 1605.18769988 339.67041016 1606.45336914 C344.59959321 1609.28966215 349.51551825 1612.14222728 354.39257812 1615.06738281 C362.65761487 1620.00356841 370.4933908 1624.55317559 379.95898438 1626.82128906 C380.70535156 1627.00820312 381.45171875 1627.19511719 382.22070312 1627.38769531 C409.52764974 1631.71161981 430.09281485 1617.78545094 452.58789062 1604.55957031 C458.9836519 1600.80007942 465.40534995 1597.08672118 471.83398438 1593.38378906 C473.45324829 1592.45058838 473.45324829 1592.45058838 475.10522461 1591.49853516 C477.29563187 1590.23631073 479.48614309 1588.97426669 481.67675781 1587.71240234 C487.1055838 1584.58448758 492.53217719 1581.45270458 497.95898438 1578.32128906 C500.1256402 1577.07127027 502.29230687 1575.82127028 504.45898438 1574.57128906 C505.53148437 1573.95253906 506.60398437 1573.33378906 507.70898438 1572.69628906 C569.45898438 1537.07128906 569.45898438 1537.07128906 572.71118164 1535.19506836 C574.87057832 1533.94923137 577.02992107 1532.70330088 579.18920898 1531.45727539 C585.84757515 1527.61523378 592.50804268 1523.77686481 599.16992188 1519.94091797 C602.4467965 1518.05184558 605.72067831 1516.15767296 608.99414062 1514.26269531 C612.65633267 1512.1436435 616.32829066 1510.04511037 620.01757812 1507.97363281 C628.19511037 1503.34676779 635.35319004 1498.61439325 641.95898438 1491.82128906 C642.90451172 1490.92410156 642.90451172 1490.92410156 643.86914062 1490.00878906 C655.91767702 1477.72192996 659.13408629 1459.90111245 659.08761883 1443.36315536 C659.09024838 1442.15551947 659.09024838 1442.15551947 659.09293106 1440.92348689 C659.09756499 1438.23882968 659.09513232 1435.55422726 659.09269714 1432.86956787 C659.09456643 1430.92003436 659.0968676 1428.97050122 659.09956247 1427.02096868 C659.10567231 1421.67345211 659.10554783 1416.3259512 659.10436809 1410.97843194 C659.10416388 1405.20732397 659.10968479 1399.43622099 659.11442566 1393.66511536 C659.12272823 1382.36218226 659.12548032 1371.05925437 659.12603804 1359.75631848 C659.12651337 1350.56804671 659.12856898 1341.37977666 659.13173866 1332.19150543 C659.13911156 1310.37468341 659.1452636 1288.55786272 659.1447401 1266.74103928 C659.14472453 1266.04366836 659.14470895 1265.34629744 659.1446929 1264.62779407 C659.14460979 1261.09340721 659.14451075 1257.55902035 659.14440819 1254.0246335 C659.14438824 1253.32271966 659.1443683 1252.62080582 659.14434775 1251.89762187 C659.14430731 1250.47818168 659.14426551 1249.05874149 659.14422236 1247.6393013 C659.14360968 1225.55786746 659.15111558 1203.47644898 659.16479492 1181.39501953 C659.18016538 1156.57367608 659.1887479 1131.75234279 659.1878317 1106.93099427 C659.18749979 1093.79344373 659.19024449 1080.65591052 659.20100975 1067.51836395 C659.21011652 1056.33319393 659.21228852 1045.14804908 659.20550033 1033.96287695 C659.20223608 1028.25803561 659.20217508 1022.55324258 659.21085358 1016.84840584 C659.21872354 1011.6212272 659.21728201 1006.39413514 659.20856944 1001.1669586 C659.20703557 999.28073655 659.20884637 997.39450801 659.21442952 995.5082936 C659.27391911 973.97613337 656.65345244 954.22467114 641.39648438 937.69628906 C629.73088729 926.79672556 614.26152441 919.77090064 600.45785522 911.945755 C594.23211664 908.41421213 588.03110411 904.84029038 581.83398438 901.25878906 C580.77018555 900.64438965 579.70638672 900.02999023 578.61035156 899.39697266 C576.4657109 898.15822977 574.32117931 896.91929803 572.17675781 895.68017578 C566.77227792 892.55804301 561.36551025 889.43987702 555.95898438 886.32128906 C553.79230687 885.07130785 551.6256402 883.82130785 549.45898438 882.57128906 C548.38648438 881.95253906 547.31398438 881.33378906 546.20898438 880.69628906 C534.29231771 873.82128906 522.37565104 866.94628906 510.45898438 860.07128906 C509.38632324 859.4524585 508.31366211 858.83362793 507.20849609 858.19604492 C505.04341367 856.94693388 502.87837455 855.69774777 500.71337891 854.44848633 C495.27282732 851.30926597 489.83151222 848.17138343 484.38867188 845.03613281 C473.93692238 839.01381578 463.4959889 832.97459569 453.08398438 826.88378906 C443.81334507 821.46170208 434.49961739 816.11804895 425.16851807 810.80105591 C416.09119802 805.62750119 407.05326905 800.38986752 398.03710938 795.11035156 C390.37324463 790.62962641 382.67212603 786.21634682 374.95898438 781.82128906 C365.25684706 776.29231869 355.58751702 770.71054301 345.94921875 765.07080078 C338.13558442 760.50058662 330.30144525 755.96678536 322.45898438 751.44628906 C321.87711365 751.11088104 321.29524292 750.77547302 320.69573975 750.42990112 C317.45061929 748.55955649 314.20501734 746.69004952 310.95898438 744.82128906 C310.95898438 743.83128906 310.95898438 742.84128906 310.95898438 741.82128906 C311.97992187 741.26183594 313.00085937 740.70238281 314.05273438 740.12597656 C323.9099975 734.6995151 333.65975377 729.10821335 343.3671875 723.41845703 C351.2009236 718.83240619 359.07161253 714.3141095 366.95898438 709.82128906 C375.65317179 704.86780702 384.32401557 699.87759433 392.95898438 694.82128906 C401.59395995 689.76497984 410.26504757 684.77521784 418.95898438 679.82128906 C428.68022943 674.28142973 438.36793306 668.68753974 448.02587891 663.0378418 C458.54983062 656.88362165 469.11278575 650.7975891 479.67675781 644.71240234 C485.1055838 641.58448758 490.53217719 638.45270458 495.95898438 635.32128906 C498.1256402 634.07127027 500.29230687 632.82127028 502.45898438 631.57128906 C504.06773437 630.64316406 504.06773437 630.64316406 505.70898438 629.69628906 C517.62565104 622.82128906 529.54231771 615.94628906 541.45898438 609.07128906 C543.06954712 608.14062622 543.06954712 608.14062622 544.71264648 607.19116211 C546.86363428 605.95220478 549.01806827 604.71920988 551.17602539 603.49243164 C556.26351292 600.59063384 561.29502882 597.64178931 566.21762085 594.46908569 C568.53571706 592.98012374 570.87424761 591.52513234 573.21508789 590.07226562 C574.85446644 589.03536524 576.46304929 587.9502732 578.0703125 586.86425781 C581.07017239 585.01463322 583.53147916 583.64968033 586.95898438 582.82128906 C591.24115106 583.93788366 594.38260586 586.28261623 597.95898438 588.82128906 C599.92761338 589.94361917 601.90985608 591.04237087 603.90429688 592.11816406 C613.78332166 597.63080406 623.64550361 603.16097649 633.37573242 608.93286133 C639.68733608 612.67476746 646.03890703 616.34561577 652.39648438 620.00878906 C653.5037085 620.64679443 654.61093262 621.2847998 655.75170898 621.94213867 C658.02235505 623.25018383 660.29310795 624.55804354 662.56396484 625.86572266 C668.03068417 629.0146096 673.49473325 632.1681217 678.95898438 635.32128906 C681.12563748 636.57131256 683.29230417 637.82131253 685.45898438 639.07128906 C707.12565104 651.57128906 728.79231771 664.07128906 750.45898438 676.57128906 C751.53140381 677.1899585 752.60382324 677.80862793 753.70874023 678.44604492 C755.87633993 679.69665209 758.04382034 680.94746605 760.21118164 682.19848633 C765.61261591 685.31589944 771.01604575 688.42974309 776.42382812 691.53613281 C781.83090274 694.64348755 787.23131338 697.76212682 792.62646484 700.89013672 C794.89498043 702.20471242 797.1646341 703.51709842 799.43603516 704.82666016 C819.30549812 716.29472474 837.87022897 728.4656629 854.95898438 743.82128906 C855.51424805 744.31483887 856.06951172 744.80838867 856.64160156 745.31689453 C905.69257976 789.00780931 933.78045213 851.59287635 937.95898438 916.82128906 C938.53129655 928.91483744 938.41885731 941.04189671 938.41880337 953.14562286 C938.42206171 958.00273915 938.44249445 962.85979174 938.46052349 967.71687156 C938.49345998 977.31397642 938.51062262 986.91104857 938.52265011 996.50819984 C938.53778345 1008.01734544 938.56997878 1019.52642879 938.60209532 1031.03553727 C938.68226737 1060.14465818 938.72767949 1089.25380831 938.76811868 1118.36300704 C938.77914636 1126.24899445 938.79115289 1134.13498018 938.80337667 1142.02096581 C938.87803525 1190.3163789 938.94421067 1238.61179553 938.98094782 1286.90725352 C938.98363984 1290.43502034 938.98638392 1293.96278712 938.98913103 1297.4905539 C938.98967586 1298.19030232 938.9902207 1298.89005074 938.99078205 1299.61100366 C938.99630959 1306.69965766 939.00190734 1313.78831161 939.00757632 1320.8769655 C939.00871047 1322.29818691 939.00983935 1323.71940831 939.01096297 1325.14062973 C939.04708681 1370.82799493 939.13624461 1416.51501826 939.26120831 1462.20222232 C939.35107837 1495.06880609 939.43394766 1527.9353196 939.46304131 1560.80202198 C939.46364297 1561.4780583 939.46424464 1562.15409462 939.46486454 1562.85061688 C939.47733041 1577.02506186 939.48629022 1591.19950697 939.49098525 1605.37395664 C939.4932065 1612.01132156 939.4959385 1618.64868619 939.49895859 1625.2860508 C939.49953043 1626.59224317 939.50010228 1627.89843555 939.50069145 1629.24420952 C939.51123007 1650.2605012 939.57210779 1671.27635868 939.6513485 1692.29249088 C939.72974448 1713.40214813 939.75298034 1734.51130341 939.72004463 1755.62108543 C939.70210768 1768.16048874 939.72587895 1780.69818987 939.80953714 1793.23733571 C939.86129711 1801.61515783 939.85844615 1809.99181938 939.81143408 1818.36966633 C939.78620027 1823.14206413 939.78441715 1827.91121482 939.84926845 1832.68331119 C940.24813908 1863.91575369 940.24813908 1863.91575369 932.80737912 1872.69500508 C930.32197932 1875.13087495 927.72294488 1877.24284633 924.90435563 1879.27934466 C921.44940874 1882.0178122 918.76249716 1885.44106598 915.95898438 1888.82128906 C914.50507631 1890.4502496 913.04740705 1892.07587085 911.58398438 1893.69628906 C910.44703125 1894.95699219 910.44703125 1894.95699219 909.28710938 1896.24316406 C907.73502604 1897.96191406 906.18294271 1899.68066406 904.63085938 1901.39941406 C901.23553499 1905.16429756 897.84840095 1908.93322457 894.52148438 1912.75878906 C890.86840481 1916.95432128 887.11392889 1921.0550246 883.36523438 1925.16503906 C881.37249484 1927.36481647 879.40560297 1929.58084125 877.45898438 1931.82128906 C873.82953496 1935.99857989 870.09419417 1940.07666145 866.36523438 1944.16503906 C864.37249484 1946.36481647 862.40560297 1948.58084125 860.45898438 1950.82128906 C856.82953496 1954.99857989 853.09419417 1959.07666145 849.36523438 1963.16503906 C847.37249484 1965.36481647 845.40560297 1967.58084125 843.45898438 1969.82128906 C839.82953496 1973.99857989 836.09419417 1978.07666145 832.36523438 1982.16503906 C830.37249484 1984.36481647 828.40560297 1986.58084125 826.45898438 1988.82128906 C822.82953496 1992.99857989 819.09419417 1997.07666145 815.36523438 2001.16503906 C813.37249484 2003.36481647 811.40560297 2005.58084125 809.45898438 2007.82128906 C805.82953496 2011.99857989 802.09419417 2016.07666145 798.36523438 2020.16503906 C796.37249484 2022.36481647 794.40560297 2024.58084125 792.45898438 2026.82128906 C788.82953496 2030.99857989 785.09419417 2035.07666145 781.36523438 2039.16503906 C779.37249484 2041.36481647 777.40560297 2043.58084125 775.45898438 2045.82128906 C771.82953496 2049.99857989 768.09419417 2054.07666145 764.36523438 2058.16503906 C762.37249484 2060.36481647 760.40560297 2062.58084125 758.45898438 2064.82128906 C754.82953496 2068.99857989 751.09419417 2073.07666145 747.36523438 2077.16503906 C745.37249484 2079.36481647 743.40560297 2081.58084125 741.45898438 2083.82128906 C737.82953496 2087.99857989 734.09419417 2092.07666145 730.36523438 2096.16503906 C728.37249484 2098.36481647 726.40560297 2100.58084125 724.45898438 2102.82128906 C720.82953496 2106.99857989 717.09419417 2111.07666145 713.36523438 2115.16503906 C711.37249484 2117.36481647 709.40560297 2119.58084125 707.45898438 2121.82128906 C703.82953496 2125.99857989 700.09419417 2130.07666145 696.36523438 2134.16503906 C694.37249484 2136.36481647 692.40560297 2138.58084125 690.45898438 2140.82128906 C686.82953496 2144.99857989 683.09419417 2149.07666145 679.36523438 2153.16503906 C677.37249484 2155.36481647 675.40560297 2157.58084125 673.45898438 2159.82128906 C669.82953496 2163.99857989 666.09419417 2168.07666145 662.36523438 2172.16503906 C660.37249484 2174.36481647 658.40560297 2176.58084125 656.45898438 2178.82128906 C652.82953496 2182.99857989 649.09419417 2187.07666145 645.36523438 2191.16503906 C643.37249484 2193.36481647 641.40560297 2195.58084125 639.45898438 2197.82128906 C635.82953496 2201.99857989 632.09419417 2206.07666145 628.36523438 2210.16503906 C626.37249484 2212.36481647 624.40560297 2214.58084125 622.45898438 2216.82128906 C618.82953496 2220.99857989 615.09419417 2225.07666145 611.36523438 2229.16503906 C609.37249484 2231.36481647 607.40560297 2233.58084125 605.45898438 2235.82128906 C601.82953496 2239.99857989 598.09419417 2244.07666145 594.36523438 2248.16503906 C592.37249484 2250.36481647 590.40560297 2252.58084125 588.45898438 2254.82128906 C584.82953496 2258.99857989 581.09419417 2263.07666145 577.36523438 2267.16503906 C575.37249484 2269.36481647 573.40560297 2271.58084125 571.45898438 2273.82128906 C567.82953496 2277.99857989 564.09419417 2282.07666145 560.36523438 2286.16503906 C558.37249484 2288.36481647 556.40560297 2290.58084125 554.45898438 2292.82128906 C550.82953496 2296.99857989 547.09419417 2301.07666145 543.36523438 2305.16503906 C541.37249484 2307.36481647 539.40560297 2309.58084125 537.45898438 2311.82128906 C533.82953496 2315.99857989 530.09419417 2320.07666145 526.36523438 2324.16503906 C524.37249484 2326.36481647 522.40560297 2328.58084125 520.45898438 2330.82128906 C516.82953496 2334.99857989 513.09419417 2339.07666145 509.36523438 2343.16503906 C507.37249484 2345.36481647 505.40560297 2347.58084125 503.45898438 2349.82128906 C499.82953496 2353.99857989 496.09419417 2358.07666145 492.36523438 2362.16503906 C490.37249484 2364.36481647 488.40560297 2366.58084125 486.45898438 2368.82128906 C482.82953496 2372.99857989 479.09419417 2377.07666145 475.36523438 2381.16503906 C473.37249484 2383.36481647 471.40560297 2385.58084125 469.45898438 2387.82128906 C465.82953496 2391.99857989 462.09419417 2396.07666145 458.36523438 2400.16503906 C456.37249484 2402.36481647 454.40560297 2404.58084125 452.45898438 2406.82128906 C448.83377531 2410.9936995 445.10355654 2415.06762756 441.37695312 2419.14941406 C439.31084004 2421.43248571 437.28228398 2423.73966525 435.27148438 2426.07128906 C426.2851538 2436.33838171 416.77551658 2444.67976927 402.55810547 2446.05322266 C387.43702082 2446.94701043 375.23952138 2445.22818041 362.95898438 2435.82128906 C361.41210938 2434.64566406 361.41210938 2434.64566406 359.83398438 2433.44628906 C356.93522304 2430.79959393 354.41378014 2428.03262124 351.86914062 2425.05175781 C349.81088868 2422.64835933 347.70422558 2420.29514758 345.58398438 2417.94628906 C344.82601562 2417.10582031 344.06804688 2416.26535156 343.28710938 2415.39941406 C342.51882813 2414.54863281 341.75054688 2413.69785156 340.95898438 2412.82128906 C332.3903823 2403.33256865 332.3903823 2403.33256865 328.52148438 2398.88378906 C324.86840481 2394.68825685 321.11392889 2390.58755353 317.36523438 2386.47753906 C314.80749667 2383.65406237 312.30128468 2380.79072904 309.80273438 2377.91503906 C307.55021981 2375.35709879 305.25581346 2372.83949926 302.95898438 2370.32128906 C299.52633677 2366.55778385 296.14343428 2362.75999556 292.80273438 2358.91503906 C290.55021981 2356.35709879 288.25581346 2353.83949926 285.95898438 2351.32128906 C282.52633677 2347.55778385 279.14343428 2343.75999556 275.80273438 2339.91503906 C273.55021981 2337.35709879 271.25581346 2334.83949926 268.95898438 2332.32128906 C265.52633677 2328.55778385 262.14343428 2324.75999556 258.80273438 2320.91503906 C256.55021981 2318.35709879 254.25581346 2315.83949926 251.95898438 2313.32128906 C248.52633677 2309.55778385 245.14343428 2305.75999556 241.80273438 2301.91503906 C239.55021981 2299.35709879 237.25581346 2296.83949926 234.95898438 2294.32128906 C231.52633677 2290.55778385 228.14343428 2286.75999556 224.80273438 2282.91503906 C222.55021981 2280.35709879 220.25581346 2277.83949926 217.95898438 2275.32128906 C214.52633677 2271.55778385 211.14343428 2267.75999556 207.80273438 2263.91503906 C205.55021981 2261.35709879 203.25581346 2258.83949926 200.95898438 2256.32128906 C197.52633677 2252.55778385 194.14343428 2248.75999556 190.80273438 2244.91503906 C188.55021981 2242.35709879 186.25581346 2239.83949926 183.95898438 2237.32128906 C180.52633677 2233.55778385 177.14343428 2229.75999556 173.80273438 2225.91503906 C171.55021981 2223.35709879 169.25581346 2220.83949926 166.95898438 2218.32128906 C163.52633677 2214.55778385 160.14343428 2210.75999556 156.80273438 2206.91503906 C154.55021981 2204.35709879 152.25581346 2201.83949926 149.95898438 2199.32128906 C146.52633677 2195.55778385 143.14343428 2191.75999556 139.80273438 2187.91503906 C137.55021981 2185.35709879 135.25581346 2182.83949926 132.95898438 2180.32128906 C129.52633677 2176.55778385 126.14343428 2172.75999556 122.80273438 2168.91503906 C120.55021981 2166.35709879 118.25581346 2163.83949926 115.95898438 2161.32128906 C112.52633677 2157.55778385 109.14343428 2153.75999556 105.80273438 2149.91503906 C103.55021981 2147.35709879 101.25581346 2144.83949926 98.95898438 2142.32128906 C95.52633677 2138.55778385 92.14343428 2134.75999556 88.80273438 2130.91503906 C86.55021981 2128.35709879 84.25581346 2125.83949926 81.95898438 2123.32128906 C78.52633677 2119.55778385 75.14343428 2115.75999556 71.80273438 2111.91503906 C69.55021981 2109.35709879 67.25581346 2106.83949926 64.95898438 2104.32128906 C61.52633677 2100.55778385 58.14343428 2096.75999556 54.80273438 2092.91503906 C52.55021981 2090.35709879 50.25581346 2087.83949926 47.95898438 2085.32128906 C44.52633677 2081.55778385 41.14343428 2077.75999556 37.80273438 2073.91503906 C35.55021981 2071.35709879 33.25581346 2068.83949926 30.95898438 2066.32128906 C27.52633677 2062.55778385 24.14343428 2058.75999556 20.80273438 2054.91503906 C18.55021981 2052.35709879 16.25581346 2049.83949926 13.95898438 2047.32128906 C10.52633677 2043.55778385 7.14343428 2039.75999556 3.80273438 2035.91503906 C1.55021981 2033.35709879 -0.74418654 2030.83949926 -3.04101562 2028.32128906 C-6.47366323 2024.55778385 -9.85656572 2020.75999556 -13.19726562 2016.91503906 C-15.44978019 2014.35709879 -17.74418654 2011.83949926 -20.04101562 2009.32128906 C-23.47366323 2005.55778385 -26.85656572 2001.75999556 -30.19726562 1997.91503906 C-32.44978019 1995.35709879 -34.74418654 1992.83949926 -37.04101562 1990.32128906 C-40.47366323 1986.55778385 -43.85656572 1982.75999556 -47.19726562 1978.91503906 C-49.44978019 1976.35709879 -51.74418654 1973.83949926 -54.04101562 1971.32128906 C-57.47366323 1967.55778385 -60.85656572 1963.75999556 -64.19726562 1959.91503906 C-66.44978019 1957.35709879 -68.74418654 1954.83949926 -71.04101562 1952.32128906 C-74.47366323 1948.55778385 -77.85656572 1944.75999556 -81.19726562 1940.91503906 C-83.44978019 1938.35709879 -85.74418654 1935.83949926 -88.04101562 1933.32128906 C-91.47366323 1929.55778385 -94.85656572 1925.75999556 -98.19726562 1921.91503906 C-100.44978019 1919.35709879 -102.74418654 1916.83949926 -105.04101562 1914.32128906 C-108.47366323 1910.55778385 -111.85656572 1906.75999556 -115.19726562 1902.91503906 C-117.44978019 1900.35709879 -119.74418654 1897.83949926 -122.04101562 1895.32128906 C-125.47366323 1891.55778385 -128.85656572 1887.75999556 -132.19726562 1883.91503906 C-134.44978019 1881.35709879 -136.74418654 1878.83949926 -139.04101562 1876.32128906 C-142.47366323 1872.55778385 -145.85656572 1868.75999556 -149.19726562 1864.91503906 C-151.44978019 1862.35709879 -153.74418654 1859.83949926 -156.04101562 1857.32128906 C-159.47366323 1853.55778385 -162.85656572 1849.75999556 -166.19726562 1845.91503906 C-168.44978019 1843.35709879 -170.74418654 1840.83949926 -173.04101562 1838.32128906 C-176.47366323 1834.55778385 -179.85656572 1830.75999556 -183.19726562 1826.91503906 C-185.44978019 1824.35709879 -187.74418654 1821.83949926 -190.04101562 1819.32128906 C-193.47366323 1815.55778385 -196.85656572 1811.75999556 -200.19726562 1807.91503906 C-202.44978019 1805.35709879 -204.74418654 1802.83949926 -207.04101562 1800.32128906 C-210.47366323 1796.55778385 -213.85656572 1792.75999556 -217.19726562 1788.91503906 C-219.44978019 1786.35709879 -221.74418654 1783.83949926 -224.04101562 1781.32128906 C-227.47366323 1777.55778385 -230.85656572 1773.75999556 -234.19726562 1769.91503906 C-236.44978019 1767.35709879 -238.74418654 1764.83949926 -241.04101562 1762.32128906 C-244.47366323 1758.55778385 -247.85656572 1754.75999556 -251.19726562 1750.91503906 C-253.44978019 1748.35709879 -255.74418654 1745.83949926 -258.04101562 1743.32128906 C-261.47366323 1739.55778385 -264.85656572 1735.75999556 -268.19726562 1731.91503906 C-270.44978019 1729.35709879 -272.74418654 1726.83949926 -275.04101562 1724.32128906 C-278.47366323 1720.55778385 -281.85656572 1716.75999556 -285.19726562 1712.91503906 C-287.44978019 1710.35709879 -289.74418654 1707.83949926 -292.04101562 1705.32128906 C-295.47366323 1701.55778385 -298.85656572 1697.75999556 -302.19726562 1693.91503906 C-304.44978019 1691.35709879 -306.74418654 1688.83949926 -309.04101562 1686.32128906 C-312.47366323 1682.55778385 -315.85656572 1678.75999556 -319.19726562 1674.91503906 C-321.44978019 1672.35709879 -323.74418654 1669.83949926 -326.04101562 1667.32128906 C-329.47366323 1663.55778385 -332.85656572 1659.75999556 -336.19726562 1655.91503906 C-338.44978019 1653.35709879 -340.74418654 1650.83949926 -343.04101562 1648.32128906 C-346.47366323 1644.55778385 -349.85656572 1640.75999556 -353.19726562 1636.91503906 C-355.44978019 1634.35709879 -357.74418654 1631.83949926 -360.04101562 1629.32128906 C-363.47366323 1625.55778385 -366.85656572 1621.75999556 -370.19726562 1617.91503906 C-372.44978019 1615.35709879 -374.74418654 1612.83949926 -377.04101562 1610.32128906 C-380.47366323 1606.55778385 -383.85656572 1602.75999556 -387.19726562 1598.91503906 C-389.44978019 1596.35709879 -391.74418654 1593.83949926 -394.04101562 1591.32128906 C-398.0982145 1586.86811732 -402.10376081 1582.38063014 -406.04101562 1577.82128906 C-406.66266602 1577.10513428 -406.66266602 1577.10513428 -407.296875 1576.37451172 C-420.60249811 1561.03738833 -433.15550867 1545.28669192 -445.04101562 1528.82128906 C-445.55519043 1528.11391602 -446.06936523 1527.40654297 -446.59912109 1526.67773438 C-497.51796573 1456.5214089 -531.2331079 1375.22274106 -553.43602071 1159.22945209 C-553.42624019 1150.78993718 -553.4343299 1142.35045926 -553.44263173 1133.91094611 C-553.45831764 1117.38407888 -553.45710494 1100.85724672 -553.44839499 1084.33037626 C-553.44081296 1069.87077443 -553.4388946 1055.41118537 -553.44246292 1040.95158195 C-553.44269208 1039.98803632 -553.44292123 1039.02449068 -553.44315733 1038.03174669 C-553.44409152 1034.11931945 -553.44504674 1030.20689221 -553.44603662 1026.29446497 C-553.45518751 989.6891145 -553.44693392 953.08378623 -553.43074593 916.47843919 C-553.41650404 884.02703678 -553.41779271 851.57566969 -553.43212891 819.12426758 C-553.448224 782.57024293 -553.45454614 746.01623782 -553.44529212 709.46221012 C-553.44433011 705.55956869 -553.44339158 701.65692725 -553.44246292 697.75428581 C-553.44222569 696.79352368 -553.44198846 695.83276155 -553.44174404 694.84288541 C-553.43834527 680.3950589 -553.44229668 665.94724661 -553.44990158 651.49942207 C-553.4585115 635.06142907 -553.45626636 618.62347628 -553.44005935 602.18548823 C-553.4313079 593.00893968 -553.43059154 583.8324784 -553.44199787 574.65593228 C-553.44879754 568.5021165 -553.44440981 562.34836969 -553.43148357 556.19456402 C-553.42444785 552.70499916 -553.42169035 549.21560568 -553.43270151 545.72604711 C-553.67555032 446.90962046 -518.2381638 351.76131886 -450.55957031 279.45751953 C-449.06146813 277.84332647 -447.58331295 276.21321209 -446.11132812 274.57519531 C-441.70689584 269.67995318 -437.302949 264.94815197 -432.24414062 260.71191406 C-429.95383402 258.74647364 -427.75956549 256.6929175 -425.56469727 254.62207031 C-418.96161701 248.41108767 -412.09021649 242.70326689 -404.87548828 237.21875 C-403.00955442 235.79732261 -401.15601832 234.36071944 -399.30273438 232.92285156 C-380.57783293 218.5068188 -360.26651742 206.66067097 -339.84161377 194.86157227 C-338.10141944 193.85618695 -336.36197535 192.84950343 -334.62255859 191.84277344 C-328.16780366 188.10746675 -321.70686147 184.38302053 -315.24267578 180.6640625 C-309.83957954 177.55421269 -304.44052045 174.43736884 -299.04101562 171.32128906 C-296.87436792 170.07125619 -294.70770126 168.82125618 -292.54101562 167.57128906 C-291.46851563 166.95253906 -290.39601563 166.33378906 -289.29101562 165.69628906 C-97.54101562 55.07128906 -97.54101562 55.07128906 -94.29052734 53.19604492 C-92.12544492 51.94693388 -89.9604058 50.69774777 -87.79541016 49.44848633 C-82.35485857 46.30926597 -76.91354347 43.17138343 -71.47070312 40.03613281 C-61.96895902 34.56131835 -52.47040168 29.08171345 -43.00146484 23.55029297 C-41.0430478 22.40651023 -39.08375066 21.26423295 -37.12353516 20.12353516 C-32.31036735 17.321912 -27.50575204 14.50757313 -22.72106934 11.65762329 C-20.32994675 10.23605562 -17.93304642 8.82442204 -15.53515625 7.41430664 C-13.82361623 6.40305098 -12.11972438 5.37888651 -10.41601562 4.35449219 C-8.86140625 3.44280273 -8.86140625 3.44280273 -7.27539062 2.51269531 C-5.90205566 1.6958728 -5.90205566 1.6958728 -4.50097656 0.86254883 C-2.04101562 -0.17871094 -2.04101562 -0.17871094 0 0 Z " fill="#333333" transform="translate(1111.041015625,333.1787109375)"/>
<path d="M0 0 C1.08398575 -0.00701431 2.1679715 -0.01402863 3.2848053 -0.02125549 C6.76282966 -0.03865689 10.2406837 -0.04510767 13.71875 -0.046875 C14.90781952 -0.04754974 16.09688904 -0.04822449 17.32199097 -0.04891968 C34.82130586 -0.033131 51.90923359 0.42265564 69.21875 3.203125 C70.32686035 3.36941406 71.4349707 3.53570312 72.57666016 3.70703125 C108.91522797 9.22293473 143.72482556 20.23138355 177.21875 35.203125 C178.61287109 35.82574219 178.61287109 35.82574219 180.03515625 36.4609375 C194.24758154 42.87411339 207.73648798 50.39087185 221.21875 58.203125 C223.32514076 59.41602489 225.43191887 60.62825229 227.5390625 61.83984375 C233.00370869 64.98462804 238.46284611 68.13884308 243.92041016 71.29589844 C249.35072456 74.43591444 254.78491306 77.56921016 260.21875 80.703125 C262.38543564 81.95309211 264.5521023 83.20309213 266.71875 84.453125 C267.79125 85.071875 268.86375 85.690625 269.96875 86.328125 C290.55208333 98.203125 311.13541667 110.078125 331.71875 121.953125 C332.79141113 122.57195557 333.86407227 123.19078613 334.96923828 123.82836914 C337.13432071 125.07748018 339.29935982 126.32666629 341.46435547 127.57592773 C346.90490706 130.71514809 352.34622216 133.85303063 357.7890625 136.98828125 C368.24081199 143.01059829 378.68174548 149.04981837 389.09375 155.140625 C397.77137241 160.21587623 406.48480568 165.22571267 415.21875 170.203125 C424.93990617 175.7431423 434.62769658 181.33687309 444.28564453 186.98657227 C454.80959625 193.14079242 465.37255137 199.22682496 475.93652344 205.31201172 C481.36534942 208.43992648 486.79194281 211.57170948 492.21875 214.703125 C494.38540583 215.95314379 496.5520725 217.20314378 498.71875 218.453125 C572.38541667 260.953125 646.05208333 303.453125 719.71875 345.953125 C720.79165283 346.57203613 721.86455566 347.19094727 722.9699707 347.82861328 C725.1328178 349.07655346 727.29541624 350.32492471 729.45776367 351.57373047 C734.93089347 354.73385798 740.40837391 357.8859737 745.89453125 361.0234375 C770.39169554 375.05080721 794.063915 389.66509047 816.21875 407.203125 C817.15074219 407.94046875 818.08273437 408.6778125 819.04296875 409.4375 C825.01653233 414.24361963 830.70147804 419.30149915 836.3125 424.51953125 C838.93257428 426.93887403 841.59763777 429.2924643 844.28125 431.640625 C852.60463595 439.1236691 859.83083321 447.58735711 866.83984375 456.2890625 C870.02793068 460.19433812 873.31638901 464.00919029 876.61889648 467.81787109 C884.30810032 476.7206001 891.54739163 485.75170197 898.03125 495.578125 C898.72065674 496.62121826 899.41006348 497.66431152 900.12036133 498.73901367 C930.63439212 545.3607176 950.14379305 597.95990973 958.46875 653.015625 C958.61989258 654.01464844 958.77103516 655.01367188 958.92675781 656.04296875 C961.77726554 676.17025582 962.50001388 696.07446933 962.4140625 716.3828125 C962.41032161 719.01937756 962.40747974 721.65594403 962.40548706 724.29251099 C962.39934469 730.45773336 962.38303537 736.62288226 962.36278808 742.78807271 C962.34019923 749.82350508 962.32937873 756.85894153 962.31939721 763.89440131 C962.29865994 778.33067992 962.26362986 792.76690143 962.21875 807.203125 C959.26096486 806.03452104 956.41797484 804.85681981 953.63671875 803.3125 C952.96527832 802.94044434 952.29383789 802.56838867 951.60205078 802.18505859 C950.87743652 801.77852051 950.15282227 801.37198242 949.40625 800.953125 C948.23425049 800.29884521 948.23425049 800.29884521 947.03857422 799.63134766 C939.57640465 795.44397456 932.19151297 791.12612608 924.80932617 786.79980469 C916.97621151 782.2135483 909.10574431 777.69573038 901.21875 773.203125 C891.54374637 767.69082644 881.9059241 762.11887668 872.296875 756.4921875 C864.63301026 752.01146235 856.93189165 747.59818276 849.21875 743.203125 C839.49750494 737.66326567 829.80980132 732.06937568 820.15185547 726.41967773 C809.62790375 720.26545758 799.06494863 714.17942504 788.50097656 708.09423828 C783.07215058 704.96632352 777.64555719 701.83454052 772.21875 698.703125 C770.05209417 697.45310621 767.8854275 696.20310622 765.71875 694.953125 C709.38541667 662.453125 653.05208333 629.953125 596.71875 597.453125 C595.64608887 596.83429443 594.57342773 596.21546387 593.46826172 595.57788086 C591.30317929 594.32876982 589.13814018 593.07958371 586.97314453 591.83032227 C581.53259294 588.69110191 576.09127784 585.55321937 570.6484375 582.41796875 C560.19668801 576.39565171 549.75575452 570.35643163 539.34375 564.265625 C530.66612759 559.19037377 521.95269432 554.18053733 513.21875 549.203125 C503.49759383 543.6631077 493.80980342 538.06937691 484.15185547 532.41967773 C474.74749869 526.92017683 465.31246231 521.47472213 455.87109375 516.0390625 C451.84141132 513.71837842 447.81604895 511.39055992 443.79632568 509.0526886 C441.40885447 507.66432523 439.0199868 506.2783743 436.63104248 504.89254761 C434.9462038 503.91383395 433.26335962 502.93168935 431.58056641 501.94946289 C430.04601807 501.05988892 430.04601807 501.05988892 428.48046875 500.15234375 C427.58287842 499.62987061 426.68528809 499.10739746 425.76049805 498.5690918 C424.92172119 498.11832275 424.08294434 497.66755371 423.21875 497.203125 C422.39375 496.75952637 421.56875 496.31592773 420.71875 495.85888672 C418.18887553 494.94347418 418.18887553 494.94347418 415.67700195 496.11499023 C414.77941162 496.65841064 413.88182129 497.20183105 412.95703125 497.76171875 C411.93399902 498.36765869 410.9109668 498.97359863 409.85693359 499.59790039 C408.75945801 500.27199951 407.66198242 500.94609863 406.53125 501.640625 C405.37175296 502.33452196 404.2110864 503.02646806 403.04931641 503.71655273 C400.63360037 505.15348299 398.22315606 506.59872028 395.81591797 508.04980469 C390.28968479 511.37085739 384.68751705 514.5601794 379.09375 517.765625 C370.78676007 522.55201868 362.49655457 527.36645585 354.21875 532.203125 C342.67145484 538.95013694 331.08972973 545.63651818 319.50097656 552.31201172 C314.07215058 555.43992648 308.64555719 558.57170948 303.21875 561.703125 C301.05209417 562.95314379 298.8854275 564.20314378 296.71875 565.453125 C295.11 566.38125 295.11 566.38125 293.46875 567.328125 C257.71875001 587.95312499 257.71875001 587.95312499 254.46826172 589.82836914 C252.30317929 591.07748018 250.13814018 592.32666629 247.97314453 593.57592773 C242.53259294 596.71514809 237.09127784 599.85303063 231.6484375 602.98828125 C221.15642906 609.03367659 210.67393324 615.09422719 200.21875 621.203125 C188.67145484 627.95013694 177.08972973 634.63651818 165.50097656 641.31201172 C160.07215058 644.43992648 154.64555719 647.57170948 149.21875 650.703125 C147.05209417 651.95314379 144.8854275 653.20314378 142.71875 654.453125 C141.11 655.38125 141.11 655.38125 139.46875 656.328125 C129.71874999 661.953125 129.71874999 661.953125 126.46826172 663.82836914 C124.30317929 665.07748018 122.13814018 666.32666629 119.97314453 667.57592773 C114.53259294 670.71514809 109.09127784 673.85303063 103.6484375 676.98828125 C93.15642906 683.03367659 82.67393324 689.09422719 72.21875 695.203125 C60.67145484 701.95013694 49.08972973 708.63651818 37.50097656 715.31201172 C32.07215058 718.43992648 26.64555719 721.57170948 21.21875 724.703125 C19.05209417 725.95314379 16.8854275 727.20314378 14.71875 728.453125 C13.11 729.38125 13.11 729.38125 11.46875 730.328125 C-24.28125 750.953125 -24.28125 750.953125 -27.53173828 752.82836914 C-29.69682071 754.07748018 -31.86185982 755.32666629 -34.02685547 756.57592773 C-39.46740706 759.71514809 -44.90872216 762.85303063 -50.3515625 765.98828125 C-60.84357094 772.03367659 -71.32606676 778.09422719 -81.78125 784.203125 C-93.32854516 790.95013694 -104.91027027 797.63651818 -116.49902344 804.31201172 C-121.92784942 807.43992648 -127.35444281 810.57170948 -132.78125 813.703125 C-134.94790583 814.95314379 -137.1145725 816.20314378 -139.28125 817.453125 C-140.89 818.38125 -140.89 818.38125 -142.53125 819.328125 C-152.28125 824.953125 -152.28125 824.953125 -155.53173828 826.82836914 C-157.69682071 828.07748018 -159.86185982 829.32666629 -162.02685547 830.57592773 C-168.56190015 834.34667505 -175.0985734 838.11457887 -181.63647461 841.88037109 C-184.87788643 843.74927142 -188.1167937 845.62245571 -191.35546875 847.49609375 C-195.68069449 849.99711945 -200.01774403 852.47585779 -204.36328125 854.94140625 C-223.34277496 865.75947288 -239.7460669 876.254694 -246.78125 898.203125 C-250.33354356 911.73324646 -250.21076883 925.15912508 -250.17997742 939.05737305 C-250.18542343 941.56256443 -250.19217772 944.06775325 -250.20011932 946.57293797 C-250.2143423 951.99704509 -250.21942495 957.42103881 -250.21624184 962.84516144 C-250.21155938 970.91044574 -250.22411669 978.97564071 -250.24007157 987.04090734 C-250.26643588 1000.61165166 -250.27901977 1014.18237556 -250.28363609 1027.75314331 C-250.28824952 1041.18180676 -250.29905762 1054.61044193 -250.31806374 1068.03909302 C-250.31924386 1068.87534664 -250.32042399 1069.71160026 -250.32163988 1070.5731949 C-250.32766565 1074.82043882 -250.33380136 1079.06768257 -250.33997939 1083.31492627 C-250.38349339 1113.36554234 -250.41323182 1143.41615772 -250.43481445 1173.46679688 C-250.45580791 1202.65300512 -250.48307509 1231.83919653 -250.51879883 1261.02539062 C-250.51989831 1261.92569598 -250.52099778 1262.82600133 -250.52213058 1263.75358866 C-250.53317931 1272.79516844 -250.54435519 1281.83674806 -250.5556242 1290.87832757 C-250.57857575 1309.29559316 -250.60067889 1327.71285973 -250.62226868 1346.13012695 C-250.6232623 1346.97684562 -250.62425591 1347.82356429 -250.62527964 1348.69594111 C-250.69148761 1405.19832203 -250.73785902 1461.70072252 -250.78125 1518.203125 C-252.54874051 1517.23955245 -254.31616953 1516.27586711 -256.08357239 1515.31213379 C-257.06781598 1514.77549355 -258.05205957 1514.2388533 -259.06612873 1513.68595123 C-274.42062937 1505.30030135 -289.59846087 1496.61151882 -304.69140625 1487.765625 C-310.99695419 1484.0709919 -317.32419436 1480.41459819 -323.65625 1476.765625 C-325.27648071 1475.83182007 -325.27648071 1475.83182007 -326.92944336 1474.87915039 C-329.11921334 1473.61735674 -331.30907355 1472.35571966 -333.49902344 1471.09423828 C-338.92784942 1467.96632352 -344.35444281 1464.83454052 -349.78125 1461.703125 C-351.94790583 1460.45310621 -354.1145725 1459.20310622 -356.28125 1457.953125 C-369.28125 1450.453125 -382.28125 1442.953125 -395.28125 1435.453125 C-396.35391113 1434.83429443 -397.42657227 1434.21546387 -398.53173828 1433.57788086 C-400.69682071 1432.32876982 -402.86185982 1431.07958371 -405.02685547 1429.83032227 C-410.46740706 1426.69110191 -415.90872216 1423.55321937 -421.3515625 1420.41796875 C-431.80331199 1414.39565171 -442.24424548 1408.35643163 -452.65625 1402.265625 C-461.92157389 1396.84664682 -471.23012288 1391.50636613 -480.55560303 1386.19195557 C-505.73272483 1371.84041384 -505.73272483 1371.84041384 -513.84238571 1366.84875989 C-516.73560157 1365.12775931 -516.73560157 1365.12775931 -519.88581377 1364.05952525 C-523.59106765 1362.51144599 -525.97508237 1361.09942248 -528.78125 1358.203125 C-531.11106766 1352.00268874 -530.35884575 1344.83713261 -530.24449158 1338.33331299 C-530.25187307 1336.25934082 -530.26451829 1334.18538182 -530.28197581 1332.11146998 C-530.31466475 1326.40925506 -530.27240365 1320.70966609 -530.2180146 1315.00770712 C-530.1724019 1308.8586122 -530.19598415 1302.70973805 -530.21107483 1296.56054688 C-530.22761309 1285.89969227 -530.20026374 1275.23977724 -530.14170647 1264.57913971 C-530.08030002 1253.3814453 -530.04254327 1242.18409587 -530.03659248 1230.98622894 C-530.03620298 1230.28913702 -530.03581348 1229.59204509 -530.03541218 1228.87382917 C-530.03391223 1226.04377655 -530.03259236 1223.21372392 -530.03150591 1220.38367111 C-530.02159324 1194.57944196 -529.95454619 1168.77569168 -529.85131836 1142.97167969 C-529.75411627 1118.6617655 -529.69016786 1094.35209249 -529.66674805 1070.04199219 C-529.66565436 1068.92084884 -529.66565436 1068.92084884 -529.66453858 1067.77705613 C-529.66087199 1064.01198026 -529.65726196 1060.24690433 -529.65367321 1056.48182838 C-529.6529644 1055.73869461 -529.65225559 1054.99556085 -529.6515253 1054.22990788 C-529.65010275 1052.73126046 -529.64869228 1051.23261303 -529.64729391 1049.73396559 C-529.62479269 1025.78121317 -529.57747112 1001.82850466 -529.52369637 977.87580408 C-529.50801528 970.87932501 -529.49318238 963.88284654 -529.48061061 956.88636112 C-529.45384189 942.16721857 -529.41802928 927.44820336 -529.3559125 912.72915545 C-529.33032646 906.64590217 -529.30895597 900.5627267 -529.30036545 894.47942352 C-529.18754449 822.39939859 -516.35233543 754.2977555 -465.8671875 699.47265625 C-463.93970324 697.3755245 -462.07363643 695.23936145 -460.21875 693.078125 C-454.19553515 686.20035793 -447.73747936 680.18060849 -440.59765625 674.46875 C-438.83256551 673.04884344 -437.0867283 671.60428295 -435.37109375 670.125 C-419.53439324 656.57219766 -401.17732695 646.32283489 -383.11181641 636.09423828 C-377.65111797 632.99362473 -372.21748461 629.84636429 -366.78125 626.703125 C-364.61471616 625.45289479 -362.44804939 624.20289492 -360.28125 622.953125 C-358.6725 622.025 -358.6725 622.025 -357.03125 621.078125 C-321.28124999 600.453125 -321.28124999 600.453125 -318.03076172 598.57788086 C-315.86567929 597.32876982 -313.70064018 596.07958371 -311.53564453 594.83032227 C-306.09509294 591.69110191 -300.65377784 588.55321937 -295.2109375 585.41796875 C-284.71892906 579.37257341 -274.23643324 573.31202281 -263.78125 567.203125 C-252.23395484 560.45611306 -240.65222973 553.76973182 -229.06347656 547.09423828 C-223.63465058 543.96632352 -218.20805719 540.83454052 -212.78125 537.703125 C-210.61459417 536.45310621 -208.4479275 535.20310622 -206.28125 533.953125 C-204.6725 533.025 -204.6725 533.025 -203.03125 532.078125 C-167.28125 511.453125 -167.28125 511.453125 -164.03076172 509.57788086 C-161.86567929 508.32876982 -159.70064018 507.07958371 -157.53564453 505.83032227 C-152.09509294 502.69110191 -146.65377784 499.55321937 -141.2109375 496.41796875 C-130.71892906 490.37257341 -120.23643324 484.31202281 -109.78125 478.203125 C-98.23395484 471.45611306 -86.65222973 464.76973182 -75.06347656 458.09423828 C-69.63465058 454.96632352 -64.20805719 451.83454052 -58.78125 448.703125 C-56.61459417 447.45310621 -54.4479275 446.20310622 -52.28125 444.953125 C-51.20875 444.334375 -50.13625 443.715625 -49.03125 443.078125 C-39.28125 437.453125 -39.28125 437.453125 -36.03076172 435.57788086 C-33.86567929 434.32876982 -31.70064018 433.07958371 -29.53564453 431.83032227 C-24.09509294 428.69110191 -18.65377784 425.55321937 -13.2109375 422.41796875 C-2.71892906 416.37257341 7.76356676 410.31202281 18.21875 404.203125 C29.76604516 397.45611306 41.34777027 390.76973182 52.93652344 384.09423828 C58.36534942 380.96632352 63.79194281 377.83454052 69.21875 374.703125 C71.38540583 373.45310621 73.5520725 372.20310622 75.71875 370.953125 C76.79125 370.334375 77.86375 369.715625 78.96875 369.078125 C88.71875 363.453125 88.71875 363.453125 91.97387695 361.57543945 C94.12376869 360.33493688 96.27334959 359.09389544 98.42260742 357.85229492 C103.48671479 354.92769118 108.55375902 352.00858733 113.6321106 349.10879517 C116.02412117 347.74248628 118.41434708 346.37307214 120.80444336 345.00341797 C122.48703963 344.04091486 124.17219836 343.08289569 125.85742188 342.125 C126.88029297 341.53847656 127.90316406 340.95195312 128.95703125 340.34765625 C129.85462158 339.83565674 130.75221191 339.32365723 131.67700195 338.79614258 C134.36609649 337.11077692 136.77926152 335.22949421 139.21875 333.203125 C138.1349707 332.58606689 138.1349707 332.58606689 137.02929688 331.95654297 C124.39423317 324.75902642 111.76696437 317.55139009 99.21875 310.203125 C90.5837912 305.14678693 81.91268663 300.15705367 73.21875 295.203125 C63.49750494 289.66326567 53.80980132 284.06937568 44.15185547 278.41967773 C33.62790375 272.26545758 23.06494863 266.17942504 12.50097656 260.09423828 C7.07215058 256.96632352 1.64555719 253.83454052 -3.78125 250.703125 C-5.94790583 249.45310621 -8.1145725 248.20310622 -10.28125 246.953125 C-75.28125 209.453125 -140.28125 171.953125 -205.28125 134.453125 C-206.35487793 133.83373047 -207.42850586 133.21433594 -208.53466797 132.57617188 C-210.68996311 131.3327199 -212.84523673 130.08923064 -215.00048828 128.84570312 C-220.00462674 125.95849625 -225.0089552 123.0716207 -230.01409912 120.18615723 C-231.76466241 119.17693396 -233.51515411 118.16758664 -235.265625 117.15820312 C-237.44517165 115.9014484 -239.62484832 114.64491914 -241.8046875 113.38867188 C-248.80986283 109.34896058 -255.79983507 105.2837566 -262.78125 101.203125 C-259.96481986 98.17474517 -257.2092052 96.0956518 -253.6171875 94.05859375 C-252.59109375 93.47207031 -251.565 92.88554687 -250.5078125 92.28125 C-249.40179687 91.65734375 -248.29578125 91.0334375 -247.15625 90.390625 C-245.9891947 89.72594232 -244.82253477 89.06056501 -243.65625 88.39453125 C-241.2342691 87.01211697 -238.81061846 85.63269985 -236.38574219 84.25537109 C-230.83484903 81.09918136 -225.309712 77.89837791 -219.78125 74.703125 C-217.61328798 73.45441539 -215.44531921 72.20571751 -213.27734375 70.95703125 C-208.94747534 68.46005591 -204.62837481 65.9457194 -200.31640625 63.41796875 C-139.36337216 27.77617422 -71.70790777 0.31255338 0 0 Z " fill="#5A549E" transform="translate(1490.78125,164.796875)"/>
<path d="M0 0 C4.9594307 1.65314357 8.86333897 3.51440352 13.25 6.1875 C14.76094249 7.09244319 16.27271744 7.99599736 17.78515625 8.8984375 C18.61289551 9.39311523 19.44063477 9.88779297 20.29345703 10.39746094 C26.38616719 14.0049433 32.54036804 17.50779888 38.68261719 21.0300293 C40.76901811 22.2298918 42.83064831 23.4736946 44.86747074 24.7559166 C47.96842341 26.58822665 50.99566109 27.67713872 54.42988491 28.74626541 C61.18466478 31.20249352 66.71080693 34.07801163 71 40 C75.67126865 51.97415314 73.85517272 67.07293435 73.59742081 79.64216661 C73.50826982 85.16930951 73.54685505 90.69577836 73.56950378 96.22338867 C73.59407262 107.0421067 73.50252177 117.85687042 73.37295032 128.67471716 C73.22709676 141.28292755 73.20366361 153.89048096 73.18685734 166.49941543 C73.1533602 189.00603771 73.01969516 211.51093702 72.82446289 234.01660156 C72.63537768 255.83169125 72.50063814 277.64609236 72.43481445 299.46191406 C72.43277007 300.13369353 72.43072568 300.805473 72.42861934 301.49760942 C72.41015661 307.57503916 72.3921592 313.65247023 72.37458948 319.72990261 C72.30292843 344.31484784 72.19032854 368.89964349 72.06640625 393.484375 C72.06020583 394.72984836 72.05400542 395.97532172 72.04761711 397.2585367 C71.96932497 412.84215414 71.87158213 428.42545175 71.74177742 444.00872803 C71.70607711 448.34581193 71.6768442 452.68285849 71.65369797 457.02002716 C71.62664913 462.02657534 71.58571295 467.03281956 71.53401684 472.0391722 C71.51761145 473.84051651 71.50588521 475.64191154 71.49958272 477.44331953 C71.39394592 504.90259897 64.54064016 526.27862033 47.8125 548.1875 C37.23092002 562.06959133 32.66029392 575.3007845 34 593 C35.84358747 606.45320588 42.75005727 619.25004686 53.27734375 627.86328125 C67.00255185 637.98914568 81.21864372 641.48639117 98 640 C112.24061794 637.33367154 125.02677648 629.95325742 133.6875 618.3125 C142.48611052 605.09449607 145.85844566 590.57183829 143.53515625 574.85546875 C141.11270978 563.91862465 136.1882183 555.17850144 129.125 546.625 C121.33887519 537.18146244 115.60141808 527.54623381 111.625 515.9375 C111.38604004 515.24229248 111.14708008 514.54708496 110.90087891 513.83081055 C106.9476095 501.42567445 106.71249016 488.91058546 106.75949097 476.03630066 C106.75861737 474.24316656 106.75686355 472.45003272 106.75431263 470.65690023 C106.74986545 465.76075872 106.75780641 460.86470562 106.76786876 455.96857536 C106.77653906 450.67700267 106.77358057 445.38543461 106.77206421 440.09385681 C106.77101762 430.93618281 106.77727059 421.7785374 106.78853989 412.62087059 C106.80482257 399.38057012 106.81000573 386.14028342 106.81251587 372.89997403 C106.81688863 351.41629973 106.83018636 329.93264065 106.84912109 308.44897461 C106.86749074 287.58471757 106.88164194 266.72046467 106.89013672 245.85620117 C106.89066217 244.56923449 106.89118761 243.2822678 106.89172898 241.95630213 C106.89433914 235.49970162 106.89686653 229.04310108 106.89935279 222.58650053 C106.92007224 169.0576565 106.95528636 115.52882899 107 62 C111.09324755 63.32100743 114.64406475 64.77390393 118.359375 66.94921875 C119.89150635 67.84012207 119.89150635 67.84012207 121.45458984 68.74902344 C122.5420752 69.3887207 123.62956055 70.02841797 124.75 70.6875 C126.47667152 71.69449936 128.2033493 72.70148813 129.9303894 73.70785522 C131.1249363 74.40439614 132.31904346 75.10169169 133.51272583 75.79971313 C137.78051998 78.29486459 142.06191652 80.7652861 146.3515625 83.22265625 C147.54069974 83.90468698 148.72982748 84.58673427 149.91894531 85.26879883 C152.18570991 86.56823332 154.45326177 87.86629566 156.72167969 89.1628418 C158.2632373 90.04903198 158.2632373 90.04903198 159.8359375 90.953125 C160.73876465 91.47036133 161.6415918 91.98759766 162.57177734 92.52050781 C163.37309082 93.00874023 164.1744043 93.49697266 165 94 C165.69974473 94.41081251 166.39948946 94.82162502 167.12043858 95.2448864 C169 97 169 97 169.50057125 99.50808907 C169.50078053 100.51565191 169.50098982 101.52321476 169.50120544 102.56130981 C169.51103958 103.71884766 169.52087372 104.8763855 169.53100586 106.06900024 C169.52133789 107.34061005 169.51166992 108.61221985 169.50170898 109.92236328 C169.50549219 111.27452151 169.51099224 112.62667587 169.51808167 113.9788208 C169.53207241 117.65751716 169.52083324 121.3357475 169.50437045 125.01441813 C169.49050668 128.8768744 169.49698305 132.73930393 169.50050354 136.60177612 C169.50320916 143.10357129 169.48971555 149.60518229 169.46655273 156.10693359 C169.44009718 163.58382547 169.43814441 171.06040637 169.4499411 178.53732884 C169.46080321 185.7577328 169.45445626 192.97802619 169.44038582 200.19842148 C169.43468266 203.25459334 169.43466375 206.31068275 169.43945122 209.36685562 C169.47531564 240.26544254 166.21968274 265.85260119 146.4296875 290.875 C135.28195268 305.2129226 130.84697186 318.8961329 132 337 C133.75566749 350.43327235 140.78961491 363.2824122 151.27734375 371.86328125 C164.62145754 381.70799079 178.57170081 385.54076877 195 384 C210.83552252 381.22504485 223.49514524 373.12651227 233.03515625 360.25390625 C241.45444427 347.07977617 243.8977323 331.75846304 240.875 316.5 C237.99595705 305.43080289 232.63179689 297.26180371 225.46850586 288.56469727 C206.52897194 265.43868492 204.529746 239.74014072 204.70703125 210.96875 C204.71432351 208.27877042 204.71705022 205.58879119 204.71989441 202.89880371 C204.72914578 196.58459322 204.75366379 190.27054223 204.78394288 183.95640135 C204.81770475 176.75667363 204.83402712 169.5569375 204.84902918 162.35715008 C204.88022126 147.57135255 204.9328442 132.78567909 205 118 C207.24706828 119.11654924 209.49336957 120.23459727 211.73925781 121.35351562 C212.37203644 121.66774475 213.00481506 121.98197388 213.6567688 122.3057251 C218.13462397 124.53863455 222.47616713 126.90305698 226.75 129.5 C228.17892812 130.35413627 229.60867474 131.20690413 231.0390625 132.05859375 C231.81540039 132.52120605 232.59173828 132.98381836 233.39160156 133.46044922 C238.60948892 136.54019441 243.8716729 139.5437607 249.125 142.5625 C256.46488744 146.78774151 263.7981091 151.02090004 271.0625 155.375 C271.66916504 155.73795166 272.27583008 156.10090332 272.90087891 156.47485352 C276.86931056 158.86931056 276.86931056 158.86931056 278 160 C278.10176509 162.81428983 278.13729 165.60417013 278.13142776 168.41904736 C278.1334804 169.31716158 278.13553303 170.2152758 278.13764787 171.1406056 C278.14336189 174.19011985 278.14185519 177.23958956 278.14044189 180.28910828 C278.14302313 182.48203214 278.1460356 184.67495553 278.1494453 186.86787826 C278.15754912 192.92630462 278.15930677 198.98471916 278.16004276 205.04315031 C278.16169859 210.89764036 278.16801346 216.75212419 278.17412117 222.60661102 C278.19021495 238.31347963 278.19609141 254.02034731 278.20086992 269.72722269 C278.20320578 277.16856648 278.20680877 284.60990951 278.2105653 292.0512527 C278.22341319 317.55174664 278.23412388 343.05224014 278.2375679 368.55273724 C278.23778953 370.15524266 278.23801132 371.75774808 278.23823325 373.3602535 C278.23845389 374.96658326 278.23867437 376.57291303 278.2388947 378.17924279 C278.23933724 381.40164038 278.23978436 384.62403796 278.24023438 387.84643555 C278.24039846 389.044896 278.24039846 389.044896 278.24056586 390.26756778 C278.24418467 416.0892596 278.26005363 441.91092313 278.28342474 467.73260413 C278.30811628 495.06359685 278.32174537 522.39457346 278.32293582 549.72557765 C278.32310725 552.73694631 278.32332267 555.74831496 278.32357025 558.75968361 C278.32362602 559.50110999 278.32368179 560.24253638 278.32373925 561.00643023 C278.32488268 572.86076479 278.33584544 584.71507009 278.35045731 596.56939482 C278.36494849 608.53487621 278.36798945 620.50032076 278.36001733 632.46580853 C278.35599885 638.92912775 278.35685478 645.3923697 278.37107468 651.85567856 C278.52583927 726.65393413 269.15194468 798.27875911 244 869 C243.62488281 870.05767578 243.24976562 871.11535156 242.86328125 872.20507812 C235.60359438 892.44041222 226.64857156 911.96242102 217.0625 931.1875 C216.73957977 931.8370163 216.41665955 932.48653259 216.08395386 933.1557312 C215.15625437 935.01666083 214.22211435 936.87418612 213.28515625 938.73046875 C212.74769775 939.79676514 212.21023926 940.86306152 211.65649414 941.96166992 C209.92555842 945.13654023 208.0965555 948.05567209 206 951 C205.67 951 205.34 951 205 951 C204.90833271 902.67591333 204.8379046 854.3518359 204.79573868 806.02767934 C204.79073619 800.31532775 204.78555887 794.60297633 204.78027344 788.890625 C204.7792242 787.75345637 204.77817495 786.61628773 204.77709392 785.44465944 C204.75971521 767.06087628 204.72819154 748.67714343 204.69138882 730.29339007 C204.65390877 711.41304944 204.63174924 692.53273507 204.62364602 673.65235877 C204.61817288 662.01346746 204.60092155 650.37471842 204.56833413 638.73587093 C204.54709894 630.74162078 204.54082022 622.74744357 204.54599449 614.7531673 C204.54854233 610.1491864 204.54479232 605.54545311 204.5231781 600.94151688 C204.38392138 569.67952398 206.25462703 543.14579661 226.51953125 517.828125 C237.55524532 504.03296489 243.60463116 489.95181108 242 472 C239.01087336 455.57678713 231.97028045 442.35149354 218.1875 432.6875 C204.55591656 424.02540521 189.02251631 421.82875092 173.21484375 424.68359375 C158.40559834 428.93750095 146.95938024 437.89240337 138.7265625 450.83203125 C131.37649127 464.31824792 129.67592808 480.37560988 133.98046875 495.1171875 C137.31715841 504.55196516 142.22472882 511.79046326 148.52929688 519.4284668 C162.37009429 536.3039584 169.0431891 557.03573207 169.1621542 578.77171803 C169.16750239 579.51476412 169.17285059 580.25781022 169.17836085 581.02337286 C169.1949886 583.50302978 169.20475896 585.9826636 169.21446228 588.46235657 C169.22492872 590.26238462 169.2357808 592.06241047 169.24698454 593.86243409 C169.27636232 598.80155013 169.29945003 603.74067818 169.32129228 608.67983258 C169.34076874 612.91819868 169.36378758 617.15654295 169.38668614 621.39489172 C169.60263394 661.59523964 169.7161109 701.79614476 169.80750179 741.99694538 C169.81960894 747.2291653 169.83194269 752.46138462 169.84448242 757.69360352 C169.84758927 758.99398488 169.85069611 760.29436623 169.8538971 761.63415309 C169.90570597 782.68905085 170.00989483 803.74336927 170.13427465 824.79794965 C170.26101508 846.43236196 170.33444232 868.0664732 170.35790926 889.70124692 C170.37253631 901.84126435 170.4111032 913.98019314 170.51078606 926.11983681 C170.59569439 936.46082991 170.63287719 946.8006108 170.60853248 957.14194796 C170.59761971 962.41310155 170.60893078 967.6816206 170.6823349 972.95233154 C171.1812779 1010.68389346 171.1812779 1010.68389346 160.40937895 1022.78453571 C159.21688789 1023.99315773 157.99980417 1025.17816713 156.75584233 1026.33374536 C154.4402659 1028.531175 152.46847212 1030.94457366 150.46457142 1033.42394811 C149.18052787 1035.00860441 147.85692212 1036.54957608 146.515625 1038.0859375 C144.0963266 1040.8884167 141.76002825 1043.74214151 139.4375 1046.625 C135.563039 1051.38663633 131.49002891 1055.93084547 127.3359375 1060.44921875 C125.35881142 1062.60818752 123.41832115 1064.78897727 121.5 1067 C118.57277848 1070.36140271 115.60955505 1073.68947227 112.625 1077 C111.77164063 1077.94875 110.91828125 1078.8975 110.0390625 1079.875 C109.36617187 1080.57625 108.69328125 1081.2775 108 1082 C107.67 1082 107.34 1082 107 1082 C106.93143532 1049.67649479 106.87840567 1017.35301044 106.84680401 985.02944941 C106.84305228 981.20591212 106.83916927 977.38237497 106.83520508 973.55883789 C106.83441815 972.79769979 106.83363122 972.03656168 106.83282044 971.25235879 C106.81979706 958.95802103 106.79616029 946.66372573 106.76854161 934.36941309 C106.74040173 921.73692502 106.72380568 909.10445905 106.71773452 896.47194093 C106.71363579 888.68862398 106.70073119 880.90542705 106.6762506 873.12214708 C106.65838927 867.13527418 106.65665587 861.14850265 106.66067696 855.16160011 C106.6598568 852.71925878 106.65395904 850.27691258 106.64238358 847.83459854 C106.51358187 819.2375113 111.02205392 793.97524892 130.1875 771.8125 C140.24948594 760.14122128 144.69823166 746.79149081 144.27734375 731.4375 C143.18083476 717.84696608 137.31061406 703.24830837 127 694 C113.03576268 682.5986673 98.67320019 678.92784891 81 680 C67.56067748 681.78111503 54.72756352 688.77742236 46.13671875 699.27734375 C35.93198492 713.1094562 31.93475351 728.04656992 34.46484375 745.140625 C37.1092659 757.09529079 42.87255858 766.13735248 50.53149414 775.43505859 C69.38351529 798.4571527 71.46482905 824.38832279 71.45081019 853.06431317 C71.45227263 856.69476028 71.47092033 860.32512987 71.48706055 863.95553589 C71.51893555 871.85970909 71.52897012 879.76381638 71.53470278 887.66804552 C71.53847128 892.60889956 71.54729387 897.54973644 71.55720139 902.49058151 C71.58409123 916.19260817 71.60664145 929.89461842 71.60907936 943.59667397 C71.60923493 944.47016413 71.60939051 945.3436543 71.6095508 946.24361386 C71.60984183 948.01395504 71.6101272 949.78429621 71.61040695 951.55463739 C71.61062123 952.87264803 71.61062123 952.87264803 71.61083984 954.21728516 C71.61104935 955.53691541 71.61104935 955.53691541 71.61126308 956.88320486 C71.61440624 971.17501881 71.65109839 985.46653138 71.7024761 999.75824566 C71.75490176 1014.45916678 71.78119267 1029.15993875 71.78063047 1043.8609556 C71.78088299 1052.10448675 71.79210153 1060.3476698 71.83180618 1068.59111404 C71.8653944 1075.59948979 71.87490386 1082.60738133 71.85304923 1089.6158125 C71.84260755 1093.18971822 71.84344317 1096.762675 71.87481308 1100.33647919 C71.90849318 1104.21120726 71.88788141 1108.08456882 71.86196899 1111.9593811 C71.88031253 1113.08689777 71.89865606 1114.21441444 71.91755545 1115.37609828 C71.83430648 1120.86807627 71.53139688 1124.1278978 67.56477928 1128.12241173 C66.39192511 1129.10038488 65.20552924 1130.06260059 64 1131 C62.85643649 1132.25415504 61.7266698 1133.52138962 60.625 1134.8125 C56.48731427 1139.60593503 52.24301469 1144.29982548 48 1149 C46.49971321 1150.66640851 44.99971128 1152.33307353 43.5 1154 C41.2282871 1156.52500493 38.95564586 1159.04913304 36.6796875 1161.5703125 C33.30087292 1165.31564256 29.93104035 1169.06518207 26.625 1172.875 C23.64082994 1176.30332561 20.57798283 1179.65608278 17.5 1183 C10.11153358 1190.81344561 10.11153358 1190.81344561 3.4375 1199.21875 C2.963125 1199.8065625 2.48875 1200.394375 2 1201 C1.34 1201 0.68 1201 0 1201 C0 804.67 0 408.34 0 0 Z " fill="#9898FE" transform="translate(2175,854)"/>
<path d="M0 0 C0.74544571 -0.0049649 1.49089142 -0.00992981 2.25892639 -0.01504517 C4.71600279 -0.02960426 7.17301457 -0.03645927 9.63012695 -0.04199219 C10.89533645 -0.04623325 10.89533645 -0.04623325 12.18610573 -0.05056 C16.65206844 -0.0655296 21.11799906 -0.07477237 25.58398438 -0.07910156 C30.17573469 -0.08457457 34.76718675 -0.10858415 39.3588438 -0.13707352 C42.90811493 -0.15578877 46.45731557 -0.16091026 50.00663185 -0.16243744 C51.69815509 -0.16544583 53.38967763 -0.17341234 55.08115196 -0.18662262 C67.71005213 -0.2781924 78.79491861 0.01586492 88.4309082 9.16113281 C93.61933599 15.57839876 94.73307273 22.26353514 94.70556641 30.34033203 C94.71067734 31.12669037 94.71578827 31.91304871 94.72105408 32.72323608 C94.73487222 35.30417648 94.73399911 37.88484748 94.73168945 40.46582031 C94.73558083 42.27271624 94.73991641 44.07961127 94.74467468 45.88650513 C94.75212031 49.66736826 94.75185778 53.44813799 94.74658203 57.22900391 C94.74079156 62.05622464 94.75771625 66.88306116 94.7809267 71.71021843 C94.79571249 75.44046232 94.79652913 79.17061472 94.79341698 82.90088272 C94.79392782 84.67974737 94.79912069 86.45861746 94.8092289 88.23745346 C94.91958194 110.373126 94.91958194 110.373126 86.3996582 119.43457031 C79.94641861 125.09395901 73.05940791 126.30722165 64.71582031 126.33813477 C63.55638916 126.34799156 63.55638916 126.34799156 62.37353516 126.35804749 C59.81843966 126.37773603 57.26340295 126.38943606 54.70825195 126.39941406 C53.83201235 126.40348959 52.95577274 126.40756512 52.05298042 126.41176414 C47.41081098 126.43261064 42.76867093 126.44691587 38.12646484 126.45629883 C33.35422144 126.4673321 28.58244829 126.50170023 23.81037045 126.54147053 C20.12208753 126.56774426 16.43391458 126.57600039 12.74554634 126.57958031 C10.98784794 126.58442219 9.23015364 126.59596696 7.47254753 126.6146183 C-13.94529432 126.82768817 -13.94529432 126.82768817 -22.5065918 119.72363281 C-23.1872168 118.87800781 -23.8678418 118.03238281 -24.5690918 117.16113281 C-25.6519043 115.92363281 -25.6519043 115.92363281 -26.7565918 114.66113281 C-30.49693272 109.50204188 -30.86675767 104.88259876 -30.85961914 98.64233398 C-30.86633636 97.79613998 -30.87305359 96.94994598 -30.87997437 96.07810974 C-30.89893808 93.28671358 -30.90287786 90.4955581 -30.9050293 87.70410156 C-30.91145877 85.75743004 -30.91818725 83.81075947 -30.92520142 81.86408997 C-30.93717041 77.78461467 -30.94088267 73.70522403 -30.93969727 69.62573242 C-30.9394942 64.41041291 -30.9667857 59.19563904 -31.00124168 53.98044872 C-31.02353216 49.95943228 -31.02753413 45.93854664 -31.02647781 41.91747475 C-31.02883094 39.99542678 -31.03763817 38.07337504 -31.05314255 36.15138817 C-31.07284434 33.45658075 -31.06694811 30.76294343 -31.05493164 28.06811523 C-31.06617065 27.28186768 -31.07740967 26.49562012 -31.08898926 25.68554688 C-31.00808142 18.50791423 -28.42531821 12.41867232 -23.2565918 7.34863281 C-16.58328276 1.07543652 -8.88764434 0.01428137 0 0 Z " fill="#5A549E" transform="translate(1380.569091796875,1556.8388671875)"/>
<path d="M0 0 C1.11816856 -0.00744736 1.11816856 -0.00744736 2.25892639 -0.01504517 C4.71600279 -0.02960426 7.17301457 -0.03645927 9.63012695 -0.04199219 C10.89533645 -0.04623325 10.89533645 -0.04623325 12.18610573 -0.05056 C16.65206844 -0.0655296 21.11799906 -0.07477237 25.58398438 -0.07910156 C30.17573469 -0.08457457 34.76718675 -0.10858415 39.3588438 -0.13707352 C42.90811493 -0.15578877 46.45731557 -0.16091026 50.00663185 -0.16243744 C51.69815509 -0.16544583 53.38967763 -0.17341234 55.08115196 -0.18662262 C67.02760195 -0.27324408 77.66510382 -0.34980248 86.73950195 8.32128906 C92.23787066 14.30219359 93.58084381 19.40505346 93.60791016 27.45288086 C93.61448135 28.29878281 93.62105255 29.14468475 93.62782288 30.01622009 C93.64754827 32.8184315 93.65921795 35.62058927 93.66918945 38.42285156 C93.67326498 39.38098063 93.67734051 40.33910969 93.68153954 41.32627296 C93.70239891 46.39939788 93.71670015 51.47249577 93.72607422 56.5456543 C93.73712707 61.77669284 93.77151445 67.00730464 93.81124592 72.23819256 C93.83743831 76.26777416 93.84576848 80.2972546 93.8493557 84.32691383 C93.85421633 86.25455412 93.86581535 88.18219005 93.88439369 90.10974693 C93.90883678 92.81430859 93.90781057 95.51777297 93.90087891 98.22241211 C93.91368896 99.01180176 93.92649902 99.80119141 93.93969727 100.61450195 C93.87397347 107.68593419 91.32724694 113.78742219 86.3684082 118.91113281 C76.8347116 127.42895713 64.95173713 126.74309996 52.9543457 126.65722656 C51.17558737 126.65738186 49.39682871 126.65887596 47.61807251 126.66163635 C43.90806946 126.66301365 40.19845615 126.65057279 36.48852539 126.62768555 C31.75329227 126.59926131 27.01870361 126.60205855 22.28342247 126.61477566 C18.61663384 126.62175669 14.94999206 126.61391665 11.2832222 126.60151863 C9.53786407 126.5970306 7.79249004 126.59664395 6.04713058 126.60058403 C-15.80551271 126.62683865 -15.80551271 126.62683865 -24.8425293 118.12988281 C-30.54099846 111.63208088 -31.71750888 104.72004947 -31.73022461 96.32250977 C-31.73518951 95.53658951 -31.74015442 94.75066925 -31.74526978 93.94093323 C-31.75985997 91.3437512 -31.76668919 88.74663032 -31.7722168 86.14941406 C-31.77797211 84.3382314 -31.7837298 82.52704874 -31.78948975 80.71586609 C-31.79999169 76.91710121 -31.80583921 73.11835743 -31.80932617 69.31958008 C-31.81480034 64.46875781 -31.83880869 59.61821771 -31.86729813 54.76748371 C-31.88599091 51.02438055 -31.8911337 47.28134435 -31.89266205 43.53819847 C-31.8956756 41.75095266 -31.90365996 39.96370765 -31.91684723 38.17650795 C-32.06925272 15.92849331 -32.06925272 15.92849331 -24.4440918 7.73144531 C-17.16306575 1.633586 -9.2428994 0.01485222 0 0 Z " fill="#333333" transform="translate(1567.569091796875,1556.8388671875)"/>
<path d="M0 0 C1.87129925 -0.00269872 3.74259712 -0.00658429 5.6138916 -0.01159668 C9.52414379 -0.01747386 13.43402896 -0.00898643 17.34423828 0.00976562 C22.33745799 0.0325541 27.32981747 0.01942143 32.32300568 -0.00452423 C36.18367913 -0.01903051 40.04415117 -0.01435415 43.90483093 -0.00401306 C45.74509281 -0.0013591 47.58537343 -0.0045683 49.4256134 -0.01393127 C67.84284551 -0.08708946 67.84284551 -0.08708946 74.84375 4.53125 C75.91625 5.2325 76.98875 5.93375 78.09375 6.65625 C87.22525932 16.20282792 86.58528686 26.76356608 86.5078125 39.1875 C86.51118672 41.09981595 86.51604436 43.01212981 86.52230835 44.92443848 C86.52965112 48.91874754 86.51905833 52.91249488 86.49560547 56.90673828 C86.46711927 62.00424166 86.48353724 67.10042843 86.51346779 72.19788361 C86.53161125 76.14269778 86.52575055 80.08720431 86.51282883 84.0320282 C86.50951426 85.91053934 86.5135126 87.78907922 86.52522659 89.66755676 C86.62576809 110.31805612 86.62576809 110.31805612 79.08853149 118.4173584 C72.97976401 124.26820347 66.50821049 125.98362855 58.29736328 125.93530273 C57.47199066 125.94216599 56.64661804 125.94902924 55.79623413 125.95610046 C53.08533201 125.97430458 50.37501225 125.97053972 47.6640625 125.96484375 C45.76748468 125.96940904 43.87090851 125.97471564 41.97433472 125.98072815 C38.0051195 125.98964704 34.03610562 125.98725053 30.06689453 125.97729492 C24.99742334 125.9658145 19.92864969 125.98600881 14.8592701 126.01521206 C10.94371169 126.03361998 7.02831897 126.03327233 3.11272812 126.02757454 C1.24454648 126.02742185 -0.62364675 126.03342299 -2.49178696 126.04586601 C-21.47440688 126.15448741 -21.47440688 126.15448741 -30.42578125 119.9609375 C-38.8142139 111.50879523 -39.67351549 102.36875538 -39.71203613 91.00012207 C-39.70487543 89.25007692 -39.69667122 87.50003577 -39.6875 85.75 C-39.69019977 83.92736606 -39.69408622 82.10473354 -39.69909668 80.28210449 C-39.70496892 76.47617783 -39.69650261 72.67062861 -39.67773438 68.86474609 C-39.65494614 64.00952858 -39.6680815 59.15519581 -39.69202423 54.30001068 C-39.70654402 50.54052173 -39.70184803 46.78123926 -39.69151306 43.02174377 C-39.68886282 41.23254794 -39.69205495 39.44333277 -39.70143127 37.65415955 C-39.74756257 26.3798709 -39.76823234 16.5873523 -31.96875 7.65625 C-23.21522415 -1.16375833 -11.46245038 -0.05831992 0 0 Z " fill="#333333" transform="translate(1575.15625,1370.46875)"/>
<path d="M0 0 C0.81415878 -0.00846954 1.62831757 -0.01693909 2.46714783 -0.02566528 C5.13532509 -0.04889785 7.80292102 -0.05006073 10.47119141 -0.04882812 C12.34152451 -0.05593809 14.21185546 -0.0636383 16.08218384 -0.07189941 C19.99414133 -0.08531276 23.90589711 -0.08692721 27.81787109 -0.08105469 C32.80999002 -0.07516212 37.80113525 -0.10574654 42.79306602 -0.14617157 C46.6537693 -0.17212799 50.51424058 -0.17491879 54.37501907 -0.17127991 C56.21447826 -0.17296378 58.05394902 -0.18253509 59.89332199 -0.20042419 C80.17487025 -0.37598409 80.17487025 -0.37598409 88.56967163 7.38049316 C94.88724443 13.82453847 96.90588634 20.99917205 96.85180664 29.78857422 C96.85866989 30.58322586 96.86553314 31.3778775 96.87260437 32.1966095 C96.89076982 34.79987928 96.88704925 37.40254037 96.88134766 40.00585938 C96.88591479 41.83135166 96.89122194 43.65684222 96.89723206 45.48233032 C96.90614336 49.30014042 96.90376315 53.11774112 96.89379883 56.93554688 C96.88231915 61.80648399 96.90251535 66.67669505 96.93171597 71.54753685 C96.95014258 75.31558761 96.94977255 79.0834665 96.94407845 82.85155106 C96.94392598 84.64633832 96.9499079 86.4411378 96.96236992 88.23588181 C97.02980054 99.53918326 97.08065632 109.3376916 89.26025391 118.29492188 C81.78017819 125.83180829 72.52554597 125.94858464 62.57252502 126.00135803 C60.7509839 125.99751606 58.92944496 125.99247673 57.10791016 125.98632812 C55.21658524 125.9915706 53.32526294 125.99784935 51.4339447 126.00511169 C47.48082121 126.01548765 43.52805831 126.01099499 39.57495117 125.99633789 C34.53013887 125.97915619 29.48646626 126.00265256 24.44178104 126.03782749 C20.53902256 126.05987668 16.63653362 126.05834184 12.73373222 126.05006218 C10.8747476 126.04924674 9.01574236 126.05603153 7.15681648 126.07083321 C-13.32961854 126.20897085 -13.32961854 126.20897085 -21.43907166 118.66456604 C-27.31182403 112.53060982 -29.00342164 106.03745973 -28.97216797 97.79760742 C-28.98063751 96.96408752 -28.98910706 96.13056763 -28.99783325 95.27178955 C-29.02111317 92.53324866 -29.02222744 89.79527274 -29.02099609 87.05664062 C-29.02810399 85.14003783 -29.03580391 83.22343715 -29.04406738 81.30683899 C-29.05749219 77.29474979 -29.05909035 73.28285729 -29.05322266 69.27075195 C-29.04733382 64.14969822 -29.07789379 59.02959491 -29.11833954 53.90872478 C-29.1442939 49.95108527 -29.14708685 45.99367212 -29.14344788 42.03595924 C-29.14513243 40.14905221 -29.15471042 38.26213396 -29.17259216 36.3753109 C-29.34654115 15.7496084 -29.34654115 15.7496084 -21.8260498 7.53422546 C-15.69731986 1.53878774 -8.27731617 -0.03232871 0 0 Z " fill="#5A549E" transform="translate(1378.55224609375,1370.580078125)"/>
<path d="M0 0 C5.74102254 4.49238407 9.35712674 10.92582146 11.25 17.875 C12.35620848 28.84704461 10.87740748 36.61041286 4 45.1875 C-0.687607 50.25900585 -6.86772603 53.6184838 -13.82421875 54.078125 C-25.80630823 54.23356832 -31.77577395 52.66827331 -40.54296875 44.33203125 C-46.00449251 38.25185701 -48.02253365 30.97991388 -47.75 22.875 C-46.58032191 13.46832569 -43.19943404 6.32173818 -35.796875 0.28125 C-24.91600416 -7.08689876 -11.0989441 -7.08078333 0 0 Z " fill="#9898FE" transform="translate(2379.75,1308.125)"/>
<path d="M0 0 C5.7840796 5.20567164 8.49199266 11.21049877 9.33984375 18.90234375 C9.66488517 28.63261583 7.81699797 35.10772665 1.8359375 42.71484375 C-3.85938328 48.70991826 -9.60850575 51.59642493 -17.94384766 52.05444336 C-27.68422122 52.21901504 -34.67184339 49.75571111 -41.9140625 43.21484375 C-47.75871431 36.83259426 -50.32852493 29.0732048 -50.0390625 20.46484375 C-48.98713385 12.00512281 -46.29220271 5.36722755 -40.0390625 -0.53515625 C-27.28010153 -9.8810379 -12.61233293 -9.49549203 0 0 Z " fill="#9898FD" transform="translate(2382.0390625,1160.53515625)"/>
<path d="M0 0 C6.35557558 4.64039252 11.2429567 9.70960946 13.11328125 17.54296875 C14.29347809 28.32061535 13.37440572 36.79358574 6.5390625 45.5625 C0.40496029 52.35433811 -7.09238213 55.12361777 -16.12109375 55.640625 C-23.64645008 55.37489914 -31.190941 52.50538456 -36.88671875 47.54296875 C-44.06462919 38.7699671 -45.85111046 30.57988941 -45.125 19.47558594 C-44.26236447 12.4790461 -39.92598147 6.63461722 -34.8046875 2.015625 C-25.06818925 -5.46026062 -10.60929306 -6.36557584 0 0 Z " fill="#9898FE" transform="translate(2279.88671875,1413.45703125)"/>
<path d="M0 0 C6.28503731 5.76240095 9.03205064 11.73059074 9.47851562 20.26416016 C9.66960763 30.06217528 7.29545302 37.00981492 0.70703125 44.3046875 C-5.37505296 49.8865137 -12.81819863 52.54045881 -21.04296875 52.4296875 C-31.27002978 51.53760741 -37.82305282 47.26845191 -44.5 39.6875 C-49.90759889 31.77460847 -49.99688622 23.62363489 -49.04296875 14.4296875 C-46.79736114 6.72475828 -41.79116617 0.14767835 -34.8046875 -3.8515625 C-22.58760033 -9.60077999 -10.73445315 -8.25095634 0 0 Z " fill="#9898FE" transform="translate(2284.04296875,1566.5703125)"/>
</svg>
